<?xml version="1.0" encoding="UTF-8"?><svg class="gin-custom-toolbar-logo" xmlns="http://www.w3.org/2000/svg" viewBox="0 0 63.8448 38.4313"><g><path d="m11.1729,38.4313H1.7742C.7959,38.4329.0016,37.6412,0,36.6629c0-.0021,0-.0042,0-.0063v-9.9922h3.5483v8.2045h7.6246v3.5624Z" style="fill:#a0242f;"/><path d="m47.266,6.81v4.8492h3.388v3.8864h-3.388v9.8712c-.0472.5588.1063,1.116.433,1.5718.4483.3726,1.0302.5444,1.609.475.5223.0056,1.0439-.038,1.558-.13v4.0029c-1.0393.316-2.1197.4761-3.206.475-3.7102,0-5.6027-1.8712-5.6776-5.6136v-10.6526h-2.8906v-3.8864h2.8906v-4.8489h5.2836Z"/><path d="m28.0652,24.2636l2.5963-12.5916h5.1148l-5.0542,19.7727h-4.4354l-3.756-12.4447-3.7607,12.4447h-4.4048l-5.0586-19.7857h5.1105l2.5963,12.5744,3.6133-12.5744h3.83l3.6085,12.6046Z" style="fill:#a0242f;"/><path d="m63.8448,11.7626h-3.5483V3.5409h-7.6246V0h9.3987c.9787-.0011,1.773.7913,1.7742,1.77v9.9926Z" style="fill:#a0242f;"/></g></svg>
