<svg width="265" height="46" viewBox="0 0 265 46" fill="none" xmlns="http://www.w3.org/2000/svg">
<path d="M30.0652 24.2636L32.6615 11.672H37.7763L32.7221 31.4447H28.2867L24.5307 18.9998L20.7703 31.4447H16.3652L11.3066 11.659H16.4171L19.0134 24.2334L22.6267 11.659H26.4563L30.0652 24.2636Z" fill="#A0242F"/>
<path d="M49.7028 31.8116C46.8007 31.8116 44.4351 30.9221 42.6062 29.143C40.7772 27.364 39.8641 24.9904 39.867 22.0224V21.5215C39.8352 19.6802 40.2306 17.8565 41.0224 16.193C41.7339 14.6929 42.8715 13.4346 44.2938 12.5744C45.7536 11.7145 47.4237 11.2751 49.1186 11.3049C51.8275 11.3049 53.9608 12.1584 55.5186 13.8655C57.0764 15.5726 57.8553 17.9908 57.8553 21.12V23.279H45.2371C45.3541 24.4689 45.9036 25.5749 46.7819 26.3881C47.6811 27.1833 48.8527 27.6024 50.0533 27.5583C50.9659 27.5954 51.8742 27.4141 52.7023 27.0295C53.5303 26.6449 54.2541 26.0681 54.8133 25.3474L57.4096 28.2535C56.5862 29.3963 55.4738 30.3008 54.1858 30.8746C52.7776 31.5085 51.2477 31.8283 49.7028 31.8116ZM49.1013 15.5453C48.6231 15.5274 48.1466 15.6136 47.705 15.7978C47.2635 15.9819 46.8673 16.2597 46.5439 16.6118C45.825 17.4756 45.3873 18.5376 45.289 19.6561H52.6453V19.2243C52.6847 18.2273 52.3446 17.2523 51.6933 16.4952C51.351 16.1662 50.9437 15.9118 50.4975 15.7482C50.0512 15.5847 49.5758 15.5156 49.1013 15.5453Z" fill="#A0242F"/>
<path d="M78.903 21.7418C78.903 24.9084 78.2265 27.3784 76.8735 29.1517C75.5205 30.925 73.6267 31.8116 71.1919 31.8116C70.2003 31.8453 69.2152 31.6405 68.3198 31.2143C67.4243 30.7882 66.6447 30.1533 66.0468 29.3633L65.8088 31.4619H61.0488V3.39404H66.341V13.4423C66.9292 12.7453 67.6683 12.1907 68.5026 11.8204C69.3369 11.4501 70.2447 11.2738 71.1573 11.3049C73.5747 11.3049 75.4701 12.1915 76.8432 13.9648C78.2164 15.7381 78.903 18.2326 78.903 21.4481V21.7418ZM73.6108 21.3575C73.6108 19.3596 73.2935 17.9001 72.6588 16.9789C72.344 16.5254 71.9174 16.1604 71.4202 15.9191C70.9231 15.6779 70.372 15.5685 69.8201 15.6014C68.1368 15.6014 66.9728 16.288 66.3583 17.6655V25.4769C67.0045 26.8674 68.1758 27.5626 69.8721 27.5626C71.5683 27.5626 72.6862 26.7234 73.2257 25.0451C73.5315 23.8408 73.6612 22.5988 73.6108 21.3575Z" fill="#A0242F"/>
<path d="M88.8448 11.7626H85.2965V3.54086H77.6719V0H87.0706C87.5412 0 87.9924 0.186527 88.3252 0.518547C88.6579 0.850568 88.8448 1.30088 88.8448 1.77043V11.7626Z" fill="#A0242F"/>
<path d="M103.266 6.80969V11.6589H106.654V15.5453H103.266V25.4165C103.219 25.9751 103.372 26.5322 103.699 26.9883C103.98 27.3035 104.517 27.4633 105.308 27.4633C105.831 27.469 106.352 27.4256 106.866 27.3338V31.3367C105.827 31.6527 104.746 31.8128 103.66 31.8117C99.9498 31.8117 98.0574 29.9405 97.9824 26.1981V15.5453H95.0918V11.6589H97.9824V6.80969H103.266Z" fill="#222221"/>
<path d="M108.414 21.3748C108.381 19.562 108.769 17.7663 109.548 16.1282C110.261 14.6437 111.399 13.4038 112.819 12.5658C114.325 11.7025 116.038 11.2664 117.774 11.3049C120.448 11.3049 122.63 12.121 124.321 13.7533C126.012 15.3855 126.955 17.6036 127.151 20.4075L127.19 21.7591C127.19 24.7962 126.34 27.2302 124.641 29.061C122.942 30.8919 120.664 31.8088 117.809 31.8117C114.953 31.8117 112.672 30.8977 110.967 29.0697C109.262 27.2417 108.411 24.7559 108.414 21.6123V21.3748ZM113.706 21.7504C113.706 23.6274 114.061 25.0668 114.771 26.0686C115.127 26.5325 115.586 26.9083 116.111 27.1669C116.636 27.4256 117.214 27.5601 117.8 27.5601C118.386 27.5601 118.963 27.4256 119.489 27.1669C120.014 26.9083 120.473 26.5325 120.829 26.0686C121.547 25.084 121.906 23.5122 121.906 21.3532C121.906 19.5108 121.547 18.0829 120.829 17.0696C120.494 16.5818 120.04 16.1867 119.51 15.9209C118.981 15.6551 118.392 15.5274 117.8 15.5496C117.212 15.526 116.627 15.6524 116.102 15.9169C115.577 16.1813 115.127 16.5751 114.797 17.061C114.07 18.0656 113.706 19.6288 113.706 21.7504Z" fill="#222221"/>
<path d="M142.507 29.4367C141.2 31.0229 139.392 31.8146 137.085 31.8117C134.958 31.8117 133.339 31.2028 132.225 29.9851C131.111 28.7674 130.535 26.9826 130.494 24.6306V11.659H135.786V24.4622C135.786 26.5234 136.727 27.554 138.608 27.554C140.402 27.554 141.635 26.9322 142.307 25.6886V11.659H147.617V31.4447H142.654L142.507 29.4367Z" fill="#222221"/>
<path d="M162.95 16.6248C162.32 16.5328 161.684 16.4837 161.046 16.478C159.044 16.478 157.732 17.1545 157.109 18.5075V31.4619H151.816V11.6589H156.814L156.961 14.0166C158.026 12.1973 159.497 11.289 161.375 11.2919C161.934 11.2868 162.49 11.3669 163.024 11.5294L162.95 16.6248Z" fill="#222221"/>
<path d="M165.648 6.55058C165.638 6.18726 165.703 5.82574 165.84 5.48899C165.977 5.15224 166.183 4.84761 166.444 4.59447C167.058 4.10392 167.821 3.83664 168.608 3.83664C169.395 3.83664 170.158 4.10392 170.772 4.59447C171.037 4.84533 171.246 5.14924 171.385 5.48632C171.525 5.82341 171.592 6.18607 171.581 6.55058C171.593 6.91934 171.527 7.28654 171.386 7.62761C171.245 7.96868 171.033 8.27576 170.763 8.52829C170.156 9.02282 169.396 9.29293 168.612 9.29293C167.829 9.29293 167.069 9.02282 166.462 8.52829C166.193 8.27537 165.981 7.96812 165.841 7.62707C165.701 7.28602 165.635 6.91901 165.648 6.55058ZM171.274 31.4446H165.96V11.6589H171.274V31.4446Z" fill="#222221"/>
<path d="M186.548 25.9822C186.544 25.6638 186.453 25.3525 186.283 25.0828C186.114 24.813 185.873 24.5952 185.587 24.4536C184.613 23.9702 183.571 23.6355 182.497 23.4604C177.786 22.4701 175.431 20.4708 175.431 17.4625C175.425 16.6102 175.619 15.7683 175.999 15.0048C176.378 14.2412 176.932 13.5774 177.616 13.0667C179.073 11.8921 180.981 11.3049 183.341 11.3049C185.854 11.3049 187.866 11.8965 189.378 13.0796C190.099 13.613 190.681 14.3116 191.075 15.1165C191.468 15.9213 191.663 16.8089 191.641 17.7043H186.344C186.361 17.3568 186.307 17.0095 186.185 16.6836C186.063 16.3577 185.876 16.06 185.635 15.8087C185.147 15.3164 184.384 15.0703 183.345 15.0703C182.606 15.0217 181.873 15.2359 181.277 15.6748C181.044 15.8558 180.856 16.0885 180.728 16.3546C180.6 16.6207 180.536 16.9128 180.541 17.2077C180.541 17.4967 180.619 17.7804 180.766 18.0295C180.912 18.2786 181.123 18.4839 181.377 18.6241C182.253 19.0948 183.205 19.4104 184.189 19.5568C185.32 19.7697 186.434 20.0656 187.521 20.442C190.302 21.4669 191.693 23.2402 191.693 25.762C191.703 26.6274 191.495 27.4815 191.089 28.2464C190.683 29.0112 190.092 29.6624 189.369 30.1405C187.816 31.2546 185.816 31.8117 183.358 31.8117C181.839 31.8472 180.33 31.5525 178.936 30.948C177.728 30.4208 176.682 29.5816 175.907 28.5169C175.192 27.5426 174.81 26.3649 174.816 25.1574H179.832C179.833 25.5727 179.927 25.9824 180.108 26.3562C180.29 26.73 180.553 27.0582 180.879 27.3165C181.634 27.8497 182.547 28.1143 183.471 28.0678C184.278 28.1235 185.083 27.9225 185.769 27.4935C186.014 27.3259 186.214 27.1 186.35 26.8361C186.486 26.5723 186.554 26.2788 186.548 25.9822Z" fill="#222221"/>
<path d="M200.256 11.659L200.421 13.8699C201.101 13.0245 201.971 12.3498 202.96 11.8999C203.949 11.45 205.029 11.2374 206.115 11.279C208.668 11.279 210.421 12.2865 211.373 14.3017C212.766 12.2865 214.751 11.279 217.327 11.279C219.476 11.279 221.076 11.9037 222.126 13.153C223.176 14.4024 223.707 16.2909 223.719 18.8184V31.4446H218.392V18.8357C218.392 17.713 218.171 16.8925 217.73 16.3744C217.297 15.8605 216.514 15.6014 215.406 15.6014C214.684 15.5671 213.971 15.7697 213.375 16.1784C212.78 16.587 212.335 17.1792 212.109 17.8641V31.4446H206.842V18.853C206.842 17.7087 206.613 16.8796 206.163 16.3657C205.713 15.8519 204.943 15.6014 203.857 15.6014C203.19 15.5619 202.527 15.7169 201.948 16.0474C201.368 16.3779 200.898 16.8696 200.594 17.4625V31.4446H195.293V11.659H200.256Z" fill="#222221"/>
<path d="M239.825 29.4367C238.518 31.0229 236.711 31.8146 234.403 31.8117C232.277 31.8117 230.656 31.2028 229.539 29.9851C228.423 28.7674 227.846 26.9826 227.809 24.6306V11.659H233.101V24.4622C233.101 26.5234 234.041 27.554 235.922 27.554C237.714 27.554 238.947 26.9322 239.622 25.6886V11.659H244.931V31.4447H239.972L239.825 29.4367Z" fill="#222221"/>
<path d="M259.868 25.9822C259.864 25.6633 259.772 25.3517 259.602 25.0819C259.431 24.8121 259.19 24.5946 258.903 24.4536C257.93 23.9697 256.89 23.6349 255.818 23.4604C251.107 22.4701 248.75 20.4708 248.747 17.4625C248.742 16.6099 248.937 15.7679 249.317 15.0044C249.698 14.2409 250.252 13.5772 250.937 13.0667C252.393 11.8921 254.302 11.3049 256.662 11.3049C259.177 11.3049 261.196 11.8965 262.72 13.0796C263.436 13.6156 264.013 14.3153 264.403 15.1201C264.792 15.9248 264.982 16.8111 264.957 17.7043H259.665C259.676 17.3589 259.617 17.0147 259.491 16.6927C259.365 16.3706 259.176 16.0772 258.933 15.8303C258.443 15.338 257.68 15.0919 256.644 15.0919C255.904 15.0441 255.17 15.2582 254.571 15.6964C254.339 15.8776 254.151 16.1105 254.024 16.3766C253.897 16.6427 253.834 16.9347 253.84 17.2293C253.84 17.5183 253.917 17.802 254.064 18.0511C254.211 18.3001 254.422 18.5054 254.675 18.6457C255.548 19.1069 256.494 19.4151 257.471 19.5568C258.603 19.7692 259.718 20.0651 260.807 20.442C263.602 21.464 265 23.2373 265 25.762C265.01 26.6274 264.803 27.4815 264.397 28.2464C263.991 29.0112 263.399 29.6624 262.676 30.1405C261.124 31.2546 259.121 31.8116 256.666 31.8116C255.146 31.8476 253.637 31.5529 252.243 30.948C251.036 30.419 249.991 29.5802 249.214 28.5169C248.503 27.5486 248.118 26.3798 248.115 25.179H253.143C253.144 25.5939 253.238 26.0035 253.418 26.3772C253.599 26.751 253.861 27.0794 254.186 27.3381C254.944 27.8698 255.858 28.1328 256.783 28.0851C257.59 28.1408 258.395 27.9397 259.08 27.5108C259.33 27.3426 259.533 27.1143 259.67 26.8471C259.808 26.58 259.876 26.2825 259.868 25.9822Z" fill="#222221"/>
<path d="M11.1729 38.4313H1.77417C1.54082 38.4313 1.30976 38.3854 1.09423 38.2961C0.878692 38.2069 0.682918 38.0761 0.518114 37.9112C0.353311 37.7464 0.222717 37.5507 0.133812 37.3354C0.0449063 37.1201 -0.000563872 36.8894 5.2776e-06 36.6566V26.6644H3.54834V34.8689H11.1729V38.4313Z" fill="#A0242F"/>
<path d="M97.9824 38.6645H101.661V39.3468H98.7916V41.5058H101.219V42.1838H98.7916V45.0381H97.9824V38.6645Z" fill="#222221"/>
<path d="M104.219 42.404V38.6645H105.024V42.4213C105.024 43.9542 105.677 44.4422 106.512 44.4422C107.347 44.4422 108.018 43.9542 108.018 42.4213V38.6645H108.797V42.404C108.797 44.4508 107.815 45.1503 106.512 45.1503C105.21 45.1503 104.219 44.4508 104.219 42.404Z" fill="#222221"/>
<path d="M111.979 38.6645H112.783V44.3429H115.574V45.0338H111.979V38.6645Z" fill="#222221"/>
<path d="M118.162 38.6645H118.971V44.3429H121.762V45.0338H118.162V38.6645Z" fill="#222221"/>
<path d="M127.281 44.209L127.77 43.6433C127.995 43.8866 128.266 44.0825 128.568 44.2197C128.87 44.3569 129.196 44.4325 129.527 44.4422C130.367 44.4422 130.86 44.0104 130.86 43.4015C130.86 42.7927 130.406 42.5379 129.8 42.2745L128.887 41.8859C128.285 41.6354 127.588 41.1777 127.588 40.245C127.588 39.3122 128.454 38.5566 129.592 38.5566C129.943 38.5575 130.29 38.6273 130.614 38.7622C130.937 38.897 131.231 39.0942 131.479 39.3425L131.046 39.8693C130.856 39.678 130.631 39.5264 130.382 39.4233C130.133 39.3203 129.866 39.2678 129.596 39.2691C128.887 39.2691 128.411 39.6275 128.411 40.1975C128.411 40.7675 128.965 41.0611 129.471 41.2554L130.375 41.644C131.115 41.9636 131.673 42.3997 131.673 43.3411C131.673 44.3515 130.847 45.159 129.51 45.159C129.093 45.158 128.682 45.0733 128.299 44.9101C127.916 44.7469 127.57 44.5085 127.281 44.209Z" fill="#222221"/>
<path d="M134.4 38.6645H138.079V39.3468H135.21V41.3461H137.629V42.0327H135.21V44.3429H138.174V45.0338H134.4V38.6645Z" fill="#222221"/>
<path d="M140.98 38.6645H142.975C144.274 38.6645 145.213 39.1309 145.213 40.4522C145.238 40.8774 145.104 41.2969 144.838 41.6301C144.572 41.9633 144.192 42.1866 143.772 42.2572L145.399 45.0338H144.486L142.945 42.3436H141.79V45.0338H140.98V38.6645ZM142.859 41.6872C143.849 41.6872 144.408 41.2813 144.408 40.4565C144.408 39.6318 143.849 39.3209 142.859 39.3209H141.79V41.6872H142.859Z" fill="#222221"/>
<path d="M147.148 38.6645H148.014L149.035 42.119C149.269 42.8747 149.416 43.4792 149.658 44.2263H149.697C149.931 43.4792 150.087 42.8747 150.312 42.119L151.333 38.6645H152.159L150.156 45.0338H149.213L147.148 38.6645Z" fill="#222221"/>
<path d="M154.482 38.6645H155.292V45.0338H154.482V38.6645Z" fill="#222221"/>
<path d="M158.143 41.8513C158.143 39.8002 159.346 38.548 160.973 38.548C161.3 38.5506 161.624 38.6219 161.922 38.7573C162.22 38.8927 162.486 39.0891 162.703 39.3339L162.271 39.8607C162.11 39.6741 161.911 39.524 161.687 39.4205C161.463 39.3169 161.219 39.2624 160.973 39.2605C159.765 39.2605 158.969 40.2493 158.969 41.8513C158.969 43.4534 159.735 44.4422 160.942 44.4422C161.227 44.4387 161.508 44.3722 161.763 44.2475C162.019 44.1228 162.244 43.943 162.422 43.7211L162.855 44.2263C162.621 44.5183 162.323 44.7533 161.984 44.9134C161.645 45.0735 161.274 45.1545 160.899 45.1504C159.328 45.1504 158.143 43.924 158.143 41.8513Z" fill="#222221"/>
<path d="M165.52 38.6645H169.198V39.3468H166.329V41.3461H168.765V42.0327H166.342V44.3429H169.306V45.0338H165.52V38.6645Z" fill="#222221"/>
<path d="M175.502 38.6645H177.099C179.063 38.6645 180.128 39.8002 180.128 41.8211C180.128 43.842 179.076 45.0338 177.151 45.0338H175.515L175.502 38.6645ZM177.042 44.3731C178.527 44.3731 179.275 43.4317 179.275 41.8211C179.275 40.2104 178.527 39.3252 177.042 39.3252H176.311V44.3731H177.042Z" fill="#222221"/>
<path d="M182.947 38.6645H183.752V45.0338H182.947V38.6645Z" fill="#222221"/>
<path d="M186.592 41.8513C186.592 39.8002 187.829 38.548 189.521 38.548C189.865 38.5436 190.206 38.6112 190.522 38.7466C190.838 38.882 191.122 39.0821 191.356 39.3339L190.923 39.8607C190.75 39.6658 190.535 39.5111 190.295 39.4074C190.055 39.3037 189.796 39.2536 189.534 39.2605C188.236 39.2605 187.427 40.2493 187.427 41.8513C187.427 43.4534 188.184 44.4422 189.543 44.4422C189.96 44.4555 190.368 44.3208 190.694 44.0622V42.404H189.34V41.7347H191.43V44.412C191.168 44.6593 190.859 44.852 190.522 44.9788C190.185 45.1056 189.825 45.1639 189.465 45.1504C187.803 45.1504 186.592 43.924 186.592 41.8513Z" fill="#222221"/>
<path d="M194.418 38.6645H195.227V45.0338H194.418V38.6645Z" fill="#222221"/>
<path d="M199.758 39.3468H197.832V38.6645H202.514V39.3468H200.588V45.0338H199.771L199.758 39.3468Z" fill="#222221"/>
<path d="M206.029 38.6645H206.946L209.11 45.0338H208.245L207.643 43.0906H205.319L204.709 45.0338H203.883L206.029 38.6645ZM205.514 42.4429H207.431L207.128 41.4713C206.895 40.7631 206.696 40.0636 206.488 39.3122H206.449C206.254 40.0506 206.051 40.7502 205.817 41.4713L205.514 42.4429Z" fill="#222221"/>
<path d="M211.469 38.6645H212.274V44.3429H215.065V45.0338H211.469V38.6645Z" fill="#222221"/>
<path d="M218.993 38.6645H219.906L222.07 45.0338H221.204L220.603 43.0906H218.279L217.664 45.0338H216.838L218.993 38.6645ZM218.478 42.4429H220.395L220.092 41.4713C219.858 40.7631 219.659 40.0636 219.452 39.3122H219.413C219.218 40.0506 219.014 40.7502 218.781 41.4713L218.478 42.4429Z" fill="#222221"/>
<path d="M223.965 41.8513C223.965 39.8002 225.198 38.5479 226.89 38.5479C227.235 38.5437 227.576 38.6115 227.893 38.7468C228.21 38.8822 228.494 39.0821 228.729 39.3338L228.296 39.8607C228.125 39.6681 227.915 39.5147 227.679 39.4111C227.443 39.3075 227.187 39.2561 226.929 39.2604C225.631 39.2604 224.817 40.2493 224.817 41.8513C224.817 43.4533 225.575 44.4422 226.938 44.4422C227.353 44.4571 227.76 44.3222 228.084 44.0622V42.404H226.734V41.7347H228.824V44.412C228.562 44.6591 228.254 44.8517 227.916 44.9785C227.579 45.1052 227.22 45.1637 226.86 45.1504C225.159 45.1504 223.965 43.924 223.965 41.8513Z" fill="#222221"/>
<path d="M231.793 38.6645H235.467V39.3468H232.598V41.3461H235.021V42.0327H232.598V44.3429H235.566V45.0338H231.793V38.6645Z" fill="#222221"/>
<path d="M238.375 38.6645H239.21L241.517 42.6631L242.209 43.9845H242.244C242.209 43.3454 242.148 42.6242 242.148 41.9549V38.6645H242.919V45.0338H242.079L239.768 41.0222L239.076 39.7268H239.037C239.085 40.3659 239.145 41.0481 239.145 41.7174V45.0467H238.375V38.6645Z" fill="#222221"/>
<path d="M247.451 39.3468H245.525V38.6645H250.194V39.3468H248.269V45.0338H247.451V39.3468Z" fill="#222221"/>
<path d="M252.764 42.404V38.6645H253.573V42.4213C253.573 43.9542 254.222 44.4422 255.061 44.4422C255.901 44.4422 256.567 43.9542 256.567 42.4213V38.6645H257.346V42.404C257.346 44.4508 256.364 45.1503 255.061 45.1503C253.759 45.1503 252.764 44.4508 252.764 42.404Z" fill="#222221"/>
<path d="M260.525 38.6645H262.52C263.818 38.6645 264.757 39.1309 264.757 40.4522C264.783 40.8774 264.649 41.2969 264.383 41.6301C264.117 41.9633 263.737 42.1866 263.316 42.2572L264.944 45.0338H264.03L262.49 42.3436H261.335V45.0338H260.525V38.6645ZM262.403 41.6872C263.394 41.6872 263.953 41.2813 263.953 40.4565C263.953 39.6318 263.394 39.3209 262.403 39.3209H261.335V41.6872H262.403Z" fill="#222221"/>
</svg>
